<svg width="90" height="90" viewBox="0 0 90 90" fill="none" xmlns="http://www.w3.org/2000/svg">
<circle cx="45" cy="45" r="45" fill="black"/>
<path d="M67.6813 75.5828L73.5882 20.8931H44.6383H15.8824L21.3349 75.5828L44.6383 84.5059L67.6813 75.5828Z" fill="#ECECEC"/>
<path d="M33.4808 9.798C33.4808 8.83467 33.812 8.08809 34.4743 7.55825C35.1486 7.01638 36.1601 6.74545 37.5088 6.74545C38.3999 6.74545 39.1585 6.82974 39.7846 6.99832V9.49094C39.1103 9.28623 38.442 9.18387 37.7797 9.18387C37.1295 9.18387 36.708 9.26215 36.5153 9.41869C36.3227 9.56319 36.2263 9.77994 36.2263 10.0689V16.1379C36.2263 16.7159 36.6779 17.0049 37.581 17.0049C38.4962 17.0049 39.2488 16.9146 39.8388 16.734V19.1724C39.1886 19.353 38.3999 19.4433 37.4726 19.4433C36.124 19.4433 35.1185 19.1784 34.4562 18.6486C33.806 18.1188 33.4808 17.3722 33.4808 16.4089V9.798ZM40.6536 9.76187C40.6536 8.79854 40.9787 8.05798 41.629 7.54019C42.2792 7.01036 43.2125 6.74545 44.4287 6.74545C45.6569 6.74545 46.5721 6.87188 47.1742 7.12476V9.72575C46.4396 9.41267 45.6027 9.25612 44.6635 9.25612C44.1818 9.25612 43.8567 9.3344 43.6881 9.49094C43.5195 9.63544 43.4352 9.84616 43.4352 10.1231V10.3941C43.4352 10.7312 43.4894 10.9841 43.5978 11.1527C43.7182 11.3092 43.9711 11.4898 44.3564 11.6946L46.4155 12.8505C47.4029 13.3924 47.8967 14.2052 47.8967 15.289V16.4089C47.8967 17.3842 47.5354 18.1368 46.8129 18.6667C46.0904 19.1844 45.0729 19.4433 43.7604 19.4433C42.4599 19.4433 41.4785 19.3049 40.8162 19.0279V16.4089C41.635 16.7581 42.5622 16.9327 43.5978 16.9327C44.6334 16.9327 45.1512 16.6376 45.1512 16.0476V15.7767C45.1512 15.4997 45.091 15.295 44.9705 15.1625C44.8622 15.018 44.6514 14.8615 44.3384 14.6929L42.4057 13.6453C41.2376 12.995 40.6536 12.0799 40.6536 10.8998V9.76187ZM48.5912 9.76187C48.5912 8.79854 48.9163 8.05798 49.5666 7.54019C50.2168 7.01036 51.1501 6.74545 52.3663 6.74545C53.5945 6.74545 54.5097 6.87188 55.1117 7.12476V9.72575C54.3772 9.41267 53.5403 9.25612 52.6011 9.25612C52.1194 9.25612 51.7943 9.3344 51.6257 9.49094C51.4571 9.63544 51.3728 9.84616 51.3728 10.1231V10.3941C51.3728 10.7312 51.427 10.9841 51.5354 11.1527C51.6558 11.3092 51.9087 11.4898 52.294 11.6946L54.3531 12.8505C55.3405 13.3924 55.8342 14.2052 55.8342 15.289V16.4089C55.8342 17.3842 55.473 18.1368 54.7505 18.6667C54.028 19.1844 53.0105 19.4433 51.6979 19.4433C50.3975 19.4433 49.4161 19.3049 48.7538 19.0279V16.4089C49.5726 16.7581 50.4998 16.9327 51.5354 16.9327C52.571 16.9327 53.0888 16.6376 53.0888 16.0476V15.7767C53.0888 15.4997 53.0285 15.295 52.9081 15.1625C52.7998 15.018 52.589 14.8615 52.2759 14.6929L50.3433 13.6453C49.1752 12.995 48.5912 12.0799 48.5912 10.8998V9.76187Z" fill="#ECECEC"/>
<path d="M21.7892 25.2117H68.5901L64.3355 72.0125L44.2227 77.8143L26.4307 72.0125V58.4751H33.3928L35.3267 65.0504L44.2227 67.7579L55.8262 65.0504V54.2205H26.4307H23.7232V44.1641H55.8262V35.268H23.7232L21.7892 25.2117Z" fill="black"/>
</svg>
