<svg width="90" height="90" viewBox="0 0 90 90" fill="none" xmlns="http://www.w3.org/2000/svg">
<rect width="90" height="90" rx="45" fill="#1D1D1D"/>
<rect width="90" height="90" rx="45" fill="#1D1D1D"/>
<path fill-rule="evenodd" clip-rule="evenodd" d="M70.9659 23.3051L65.6526 72.4991L44.9252 80.5254L23.9634 72.4991L19.0588 23.3051H44.9252H70.9659ZM33.3665 37.4105H59.1335V30.662H29.6855V50.294H50.8512V59.4965L42.2622 61.0302L34.9002 59.4965V54.8952H29.6855V64.4045L44.1027 68.3922L57.5997 64.4045V44.4657H33.3665V37.4105Z" fill="#ECECEC"/>
<path d="M32.2651 13.2991H34.3881V15.9055H36.3595V13.2991H38.4826V20H36.3595V17.2703H34.3881V20H32.2651V13.2991ZM40.8568 20V14.844H39.3404V13.2991H44.5296V14.844H42.9799V20H40.8568ZM45.3873 13.2991H47.3587L49.0268 15.9055L50.695 13.2991H52.7138V20H50.5433V16.3605L48.9795 19.0096H48.5198L46.9038 16.3605V20H45.3873V13.2991ZM54.3345 13.2991H56.4576V18.6352H58.7323V20H54.3345V13.2991Z" fill="#ECECEC"/>
</svg>
