<svg width="90" height="90" viewBox="0 0 90 90" fill="none" xmlns="http://www.w3.org/2000/svg">
<rect width="90" height="90" rx="45" fill="#ECECEC"/>
<path d="M43.1471 40.3363H37.7756V58.7527C36.2409 63.7405 30.1021 58.7527 30.1021 58.7527L27.8001 61.0547C32.7111 68.7282 43.1471 64.1241 43.1471 58.7527V40.3363Z" fill="black" stroke="black" stroke-width="0.767349"/>
<path d="M65.441 43.2967L63.1338 46.8828C60.0574 44.2264 50.8284 42.1033 53.9047 48.4766C65.441 52.4611 63.1338 51.2658 65.441 53.6565C66.9792 55.2503 66.8622 59.2348 65.441 61.2271C60.2112 68.5586 51.2129 64.2819 47.3675 61.2271L50.8284 57.2425C57.7501 64.8131 68.9019 57.2425 52.3665 53.6565C50.3156 52.7268 46.9829 49.3532 50.0593 43.2967C53.1356 37.2403 61.5956 40.7732 65.441 43.2967Z" fill="black"/>
<circle cx="15.9061" cy="55.2997" r="6.90615" fill="#22171D"/>
<circle cx="15.9062" cy="55.2997" r="4.6041" fill="#22171D"/>
<rect x="13.6041" y="13.0955" width="63.69" height="3.83675" fill="#1F1C00"/>
<rect x="13.6041" y="44.5569" width="27.6246" height="3.83675" transform="rotate(-90 13.6041 44.5569)" fill="#1F1C00"/>
<rect x="73.4573" y="76.7854" width="63.69" height="3.83675" transform="rotate(-90 73.4573 76.7854)" fill="#1F1C00"/>
<rect x="13.6041" y="72.9487" width="63.69" height="3.83675" fill="#1F1C00"/>
<rect x="13.6041" y="72.9487" width="6.90615" height="4.6041" transform="rotate(-90 13.6041 72.9487)" fill="#1F1C00"/>
</svg>
