<svg width="90" height="47" viewBox="0 0 90 47" fill="none" xmlns="http://www.w3.org/2000/svg">
<path d="M1.6485 21V0.5359H20.5209V4.65714H5.79816V8.69312H17.6503V12.8428H5.79816V16.8788H20.5209V21H1.6485ZM23.4094 21V0.5359H39.7522C40.5102 0.5359 41.1923 0.725383 41.7986 1.10435C42.4239 1.46436 42.9261 1.95702 43.305 2.58231C43.684 3.18865 43.8735 3.87079 43.8735 4.62872V16.9072C43.8735 17.6651 43.684 18.3567 43.305 18.982C42.9261 19.5884 42.4239 20.081 41.7986 20.46C41.1923 20.82 40.5102 21 39.7522 21H23.4094ZM27.6443 16.8788H39.5533C39.6101 16.8788 39.648 16.8693 39.667 16.8503C39.7049 16.8124 39.7238 16.7651 39.7238 16.7082V4.82768C39.7238 4.77083 39.7049 4.73294 39.667 4.71399C39.648 4.67609 39.6101 4.65714 39.5533 4.65714H27.6443C27.6064 4.65714 27.5685 4.67609 27.5306 4.71399C27.4927 4.73294 27.4738 4.77083 27.4738 4.82768V16.7082C27.4738 16.7651 27.4927 16.8124 27.5306 16.8503C27.5685 16.8693 27.6064 16.8788 27.6443 16.8788ZM51.0923 21C50.3344 21 49.6428 20.82 49.0175 20.46C48.4111 20.081 47.9185 19.5884 47.5395 18.982C47.1795 18.3567 46.9995 17.6651 46.9995 16.9072V0.5359H51.0923V16.7082C51.0923 16.7651 51.1018 16.8124 51.1207 16.8503C51.1586 16.8693 51.206 16.8788 51.2628 16.8788H63.1434C63.2002 16.8788 63.2381 16.8693 63.2571 16.8503C63.295 16.8124 63.3139 16.7651 63.3139 16.7082V0.5359H67.4636V16.9072C67.4636 17.6651 67.2741 18.3567 66.8951 18.982C66.5162 19.5884 66.014 20.081 65.3887 20.46C64.7824 20.82 64.1097 21 63.3708 21H51.0923ZM8.75409 47V30.6571H0.568447V26.5359H21.0325V30.6571H12.8753V47H8.75409ZM23.2151 47V26.5359H42.0875V30.6571H27.3647V34.6931H39.2169V38.8428H27.3647V42.8788H42.0875V47H23.2151ZM49.0119 47C48.254 47 47.5624 46.82 46.9371 46.46C46.3307 46.081 45.8381 45.5884 45.4591 44.982C45.0991 44.3567 44.9191 43.6651 44.9191 42.9072V30.6287C44.9191 29.8708 45.0991 29.1887 45.4591 28.5823C45.8381 27.957 46.3307 27.4644 46.9371 27.1043C47.5624 26.7254 48.254 26.5359 49.0119 26.5359H65.3264V30.6571H49.9783C49.6751 30.6571 49.4383 30.7424 49.2677 30.9129C49.0972 31.0645 49.0119 31.3014 49.0119 31.6235V41.9124C49.0119 42.2156 49.0972 42.4524 49.2677 42.623C49.4383 42.7935 49.6751 42.8788 49.9783 42.8788H65.3264V47H49.0119ZM68.3182 47V26.5359H72.4111V34.6931H85.1159V26.5359H89.2087V47H85.1159V38.8428H72.4111V47H68.3182Z" fill="white"/>
</svg>
