<svg width="90" height="90" viewBox="0 0 90 90" fill="none" xmlns="http://www.w3.org/2000/svg">
<rect width="90" height="90" rx="45" fill="#ECECEC"/>
<path d="M25.1827 61.5589V51.5444C25.2318 48.8444 27.1856 43.3856 34.6082 43.1499C42.0307 42.9143 50.8572 43.0517 54.3426 43.1499C56.24 43.2855 59.7689 41.5202 61.6317 37.259V15.9046C60.4783 13.7446 56.4633 9.36574 49.6299 9.13011C42.7965 8.89447 37.5536 9.03193 35.7863 9.13011C33.1845 9.96465 27.8926 12.4879 27.5391 15.9046C27.1856 19.3213 27.3918 23.4155 27.5391 25.0355H44.6226V27.0973H19.7337C16.2973 27.49 9.36574 30.6024 9.13011 39.9099C8.89447 49.2175 9.03193 50.4644 9.13011 49.9244C9.47374 53.3117 11.6632 60.3807 17.6719 61.5589H25.1827Z" fill="black" stroke="black" stroke-width="0.441816"/>
<path d="M64.5771 27.6864V37.7009C64.528 40.4009 62.5742 45.8598 55.1517 46.0954C47.7292 46.3311 38.9027 46.1936 35.4173 46.0954C33.5198 45.9599 29.991 47.7252 28.1282 51.9863V73.3407C29.2815 75.5007 33.2965 79.8796 40.13 80.1153C46.9634 80.3509 52.2063 80.2134 53.9735 80.1153C56.5753 79.2807 61.8673 76.7575 62.2208 73.3407C62.5742 69.924 62.368 65.8299 62.2208 64.2099H45.1372V62.1481H70.0262C73.4625 61.7554 80.3941 58.643 80.6298 49.3354C80.8654 40.0278 80.7279 38.7809 80.6298 39.3209C80.2861 35.9337 78.0967 28.8646 72.088 27.6864H64.5771Z" fill="#C4C4C4" stroke="#C4C4C4" stroke-width="0.441816"/>
<circle cx="35.0499" cy="17.5245" r="3.38725" fill="#ECECEC" stroke="black" stroke-width="0.883632"/>
<circle cx="54.1953" cy="71.1316" r="3.38725" fill="#ECECEC" stroke="black" stroke-width="0.883632"/>
</svg>
