<svg width="66" height="66" viewBox="0 0 66 66" fill="none" xmlns="http://www.w3.org/2000/svg">
<path d="M22.4401 35.0627C22.0334 35.0573 21.6374 34.9317 21.3018 34.7018C20.9663 34.4719 20.7062 34.1479 20.5543 33.7706C20.4024 33.3933 20.3655 32.9795 20.4481 32.5812C20.5308 32.183 20.7294 31.818 21.0189 31.5323C21.3084 31.2466 21.6759 31.0529 22.0752 30.9755C22.4745 30.8982 22.8878 30.9406 23.2631 31.0975C23.6384 31.2543 23.9589 31.5187 24.1843 31.8572C24.4098 32.1958 24.5301 32.5934 24.5301 33.0002C24.5229 33.5497 24.2995 34.0743 23.9083 34.4603C23.5171 34.8463 22.9897 35.0627 22.4401 35.0627Z" fill="url(#paint0_linear_159_83)"/>
<path d="M33 35.0625C34.1391 35.0625 35.0625 34.1391 35.0625 33C35.0625 31.8609 34.1391 30.9375 33 30.9375C31.8609 30.9375 30.9375 31.8609 30.9375 33C30.9375 34.1391 31.8609 35.0625 33 35.0625Z" fill="url(#paint1_linear_159_83)"/>
<path d="M43.9999 35.1177C43.5855 35.1231 43.1787 35.0052 42.8314 34.7789C42.4841 34.5526 42.212 34.2281 42.0495 33.8467C41.8871 33.4654 41.8418 33.0443 41.9193 32.6371C41.9968 32.2299 42.1937 31.8549 42.4848 31.5598C42.776 31.2648 43.1483 31.063 43.5545 30.9801C43.9606 30.8972 44.3823 30.9369 44.7658 31.0943C45.1493 31.2516 45.4773 31.5195 45.7082 31.8637C45.9391 32.208 46.0624 32.6132 46.0624 33.0277C46.0625 33.5773 45.8461 34.1047 45.4601 34.4959C45.074 34.8871 44.5495 35.1105 43.9999 35.1177Z" fill="url(#paint2_linear_159_83)"/>
<path d="M4.53749 35.0626C4.07935 35.0653 3.63336 34.9154 3.26985 34.6366C2.90635 34.3577 2.64604 33.9658 2.52999 33.5226C2.39466 32.9941 2.47135 32.4336 2.74368 31.9609C3.01602 31.4881 3.4624 31.1406 3.98749 30.9926C3.98749 30.9926 10.7525 29.1501 10.7525 24.7501V12.3751C10.7299 11.4372 10.8979 10.5045 11.2465 9.63343C11.595 8.7624 12.1168 7.97122 12.7802 7.30783C13.4436 6.64443 14.2348 6.12265 15.1058 5.7741C15.9769 5.42554 16.9096 5.25748 17.8475 5.28009C18.3945 5.28009 18.9191 5.49739 19.3059 5.88418C19.6927 6.27098 19.91 6.79558 19.91 7.34259C19.91 7.8896 19.6927 8.4142 19.3059 8.801C18.9191 9.18779 18.3945 9.40509 17.8475 9.40509C17.4465 9.37113 17.043 9.42559 16.6653 9.56462C16.2877 9.70365 15.9452 9.92386 15.6619 10.2097C15.3787 10.4956 15.1617 10.8401 15.0261 11.219C14.8906 11.5979 14.8398 12.0019 14.8775 12.4026V24.7501C14.8775 32.3676 5.44499 34.9251 5.03249 35.0351L4.53749 35.0626Z" fill="url(#paint3_linear_159_83)"/>
<path d="M17.8475 60.72C17.6746 60.7488 17.498 60.7488 17.325 60.72C16.9125 60.72 7.48004 57.9701 7.48004 50.4351V38.0325C7.5129 37.6366 7.45956 37.2382 7.3237 36.8648C7.18783 36.4914 6.97267 36.1519 6.69302 35.8696C6.41338 35.5874 6.07588 35.3691 5.70378 35.2297C5.33168 35.0904 4.9338 35.0334 4.53754 35.0625C3.99053 35.0625 3.46592 34.8452 3.07913 34.4585C2.69234 34.0717 2.47504 33.5471 2.47504 33C2.47504 32.453 2.69234 31.9284 3.07913 31.5416C3.46592 31.1548 3.99053 30.9375 4.53754 30.9375C5.47079 30.9188 6.39821 31.0889 7.26413 31.4374C8.13005 31.786 8.91664 32.3059 9.57668 32.9659C10.2367 33.626 10.7566 34.4125 11.1052 35.2785C11.4537 36.1444 11.6237 37.0718 11.605 38.005V50.38C11.605 54.78 18.2875 56.6501 18.3425 56.6776C18.6079 56.7382 18.8581 56.8521 19.0781 57.0124C19.298 57.1727 19.4831 57.3761 19.622 57.6102C19.7609 57.8443 19.8507 58.1041 19.8861 58.374C19.9214 58.6439 19.9015 58.9181 19.8275 59.1801C19.717 59.621 19.4619 60.0123 19.103 60.2914C18.7442 60.5705 18.3022 60.7214 17.8475 60.72Z" fill="url(#paint4_linear_159_83)"/>
<path d="M61.49 35.0626H60.9675C60.555 35.0626 51.1225 32.3126 51.1225 24.7776V12.3751C51.1559 11.9766 51.102 11.5757 50.9645 11.2002C50.8271 10.8247 50.6094 10.4837 50.3266 10.2009C50.0439 9.91819 49.7029 9.7005 49.3274 9.56305C48.9519 9.4256 48.551 9.37169 48.1525 9.40508C47.6055 9.40508 47.0809 9.18778 46.6941 8.80098C46.3073 8.41419 46.09 7.88958 46.09 7.34258C46.09 6.79557 46.3073 6.27096 46.6941 5.88417C47.0809 5.49737 47.6055 5.28007 48.1525 5.28007C49.088 5.2576 50.0184 5.42485 50.8876 5.77171C51.7567 6.11858 52.5466 6.63789 53.2096 7.29832C53.8726 7.95875 54.395 8.74662 54.7452 9.61442C55.0955 10.4822 55.2663 11.412 55.2475 12.3476V24.7501C55.2475 29.1501 61.93 31.0201 61.985 31.0201C62.5152 31.1623 62.9681 31.5074 63.246 31.9808C63.5238 32.4542 63.6043 33.0179 63.47 33.5501C63.3542 33.986 63.0969 34.371 62.7385 34.6448C62.3801 34.9185 61.941 35.0655 61.49 35.0626Z" fill="url(#paint5_linear_159_83)"/>
<path d="M48.1525 60.7201C47.6605 60.7075 47.1892 60.5194 46.8238 60.1898C46.4583 59.8601 46.2228 59.4107 46.1597 58.9226C46.0966 58.4345 46.2102 57.94 46.4798 57.5283C46.7494 57.1165 47.1574 56.8148 47.63 56.6776C47.63 56.6776 54.395 54.8351 54.395 50.3801V38.0326C54.3725 37.097 54.5398 36.1666 54.8867 35.2975C55.2335 34.4283 55.7528 33.6384 56.4133 32.9754C57.0737 32.3124 57.8616 31.7901 58.7294 31.4398C59.5972 31.0896 60.5269 30.9187 61.4625 30.9376C62.0095 30.9376 62.5341 31.1549 62.9209 31.5417C63.3077 31.9284 63.525 32.4531 63.525 33.0001C63.525 33.5471 63.3077 34.0717 62.9209 34.4585C62.5341 34.8453 62.0095 35.0626 61.4625 35.0626C61.0637 35.0328 60.6633 35.0905 60.289 35.2314C59.9148 35.3723 59.5758 35.5931 59.2957 35.8785C59.0156 36.1639 58.801 36.5069 58.6671 36.8837C58.5331 37.2604 58.4829 37.6619 58.52 38.0601V50.3801C58.52 57.9976 49.0875 60.5551 48.675 60.6651C48.5051 60.7121 48.3285 60.7307 48.1525 60.7201Z" fill="url(#paint6_linear_159_83)"/>
<defs>
<linearGradient id="paint0_linear_159_83" x1="22.4676" y1="30.9379" x2="22.4676" y2="35.0627" gradientUnits="userSpaceOnUse">
<stop stop-color="#00CB14"/>
<stop offset="1" stop-color="#ECECEC"/>
</linearGradient>
<linearGradient id="paint1_linear_159_83" x1="33" y1="30.9375" x2="33" y2="35.0625" gradientUnits="userSpaceOnUse">
<stop stop-color="#00CB14"/>
<stop offset="1" stop-color="#ECECEC"/>
</linearGradient>
<linearGradient id="paint2_linear_159_83" x1="43.9724" y1="30.9379" x2="43.9724" y2="35.1179" gradientUnits="userSpaceOnUse">
<stop stop-color="#00CB14"/>
<stop offset="1" stop-color="#ECECEC"/>
</linearGradient>
<linearGradient id="paint3_linear_159_83" x1="11.1873" y1="5.27808" x2="11.1873" y2="35.0626" gradientUnits="userSpaceOnUse">
<stop stop-color="#00CB14"/>
<stop offset="1" stop-color="#ECECEC"/>
</linearGradient>
<linearGradient id="paint4_linear_159_83" x1="11.189" y1="30.9362" x2="11.189" y2="60.7416" gradientUnits="userSpaceOnUse">
<stop stop-color="#00CB14"/>
<stop offset="1" stop-color="#ECECEC"/>
</linearGradient>
<linearGradient id="paint5_linear_159_83" x1="54.8118" y1="5.27808" x2="54.8118" y2="35.0626" gradientUnits="userSpaceOnUse">
<stop stop-color="#00CB14"/>
<stop offset="1" stop-color="#ECECEC"/>
</linearGradient>
<linearGradient id="paint6_linear_159_83" x1="54.8339" y1="30.9362" x2="54.8339" y2="60.723" gradientUnits="userSpaceOnUse">
<stop stop-color="#00CB14"/>
<stop offset="1" stop-color="#ECECEC"/>
</linearGradient>
</defs>
</svg>
