<svg width="78" height="78" viewBox="0 0 78 78" fill="none" xmlns="http://www.w3.org/2000/svg">
<path d="M62.0098 66.2351H15.9898C12.9756 66.2265 10.0873 65.0253 7.95597 62.894C5.8246 60.7626 4.62341 57.8743 4.61484 54.8601V23.1726C4.61484 20.1558 5.81327 17.2625 7.9465 15.1293C10.0797 12.996 12.973 11.7976 15.9898 11.7976H62.0098C65.0267 11.7976 67.9199 12.996 70.0532 15.1293C72.1864 17.2625 73.3848 20.1558 73.3848 23.1726V54.8601C73.3763 57.8743 72.1751 60.7626 70.0437 62.894C67.9123 65.0253 65.024 66.2265 62.0098 66.2351ZM15.9898 15.0476C13.835 15.0476 11.7683 15.9036 10.2446 17.4274C8.72086 18.9511 7.86484 21.0177 7.86484 23.1726V54.8601C7.8734 57.0124 8.73217 59.074 10.254 60.5959C11.7759 62.1178 13.8376 62.9765 15.9898 62.9851H62.0098C64.1621 62.9765 66.2237 62.1178 67.7456 60.5959C69.2675 59.074 70.1263 57.0124 70.1348 54.8601V23.1726C70.1348 21.0177 69.2788 18.9511 67.7551 17.4274C66.2313 15.9036 64.1647 15.0476 62.0098 15.0476H15.9898Z" fill="url(#paint0_linear_50_142)"/>
<path d="M18.2001 26.8776C17.6923 26.8776 17.1959 26.727 16.7737 26.4449C16.3514 26.1627 16.0224 25.7617 15.828 25.2926C15.6337 24.8234 15.5829 24.3072 15.6819 23.8092C15.781 23.3111 16.0255 22.8536 16.3846 22.4946C16.7437 22.1355 17.2012 21.891 17.6992 21.7919C18.1973 21.6928 18.7135 21.7437 19.1826 21.938C19.6518 22.1323 20.0528 22.4614 20.3349 22.8836C20.617 23.3059 20.7676 23.8023 20.7676 24.3101C20.7676 24.991 20.4971 25.6441 20.0156 26.1256C19.5341 26.6071 18.881 26.8776 18.2001 26.8776ZM18.2001 23.6276C18.0191 23.6276 17.8455 23.6995 17.7175 23.8275C17.5895 23.9555 17.5176 24.129 17.5176 24.3101C17.5176 25.0576 18.8826 25.0576 18.9151 24.3101C18.9152 24.2176 18.8965 24.1261 18.8602 24.0411C18.8239 23.9561 18.7707 23.8794 18.7039 23.8156C18.637 23.7518 18.5579 23.7022 18.4713 23.6699C18.3847 23.6376 18.2924 23.6232 18.2001 23.6276Z" fill="url(#paint1_linear_50_142)"/>
<path d="M30.8099 26.8776C30.3021 26.8776 29.8057 26.727 29.3834 26.4449C28.9612 26.1627 28.6321 25.7617 28.4378 25.2926C28.2435 24.8234 28.1926 24.3072 28.2917 23.8092C28.3908 23.3111 28.6353 22.8536 28.9944 22.4946C29.3534 22.1355 29.8109 21.891 30.309 21.7919C30.807 21.6928 31.3233 21.7437 31.7924 21.938C32.2616 22.1323 32.6626 22.4614 32.9447 22.8836C33.2268 23.3059 33.3774 23.8023 33.3774 24.3101C33.3774 24.991 33.1069 25.6441 32.6254 26.1256C32.1439 26.6071 31.4908 26.8776 30.8099 26.8776ZM30.8099 23.6276C30.7202 23.6276 30.6315 23.6452 30.5487 23.6795C30.4659 23.7138 30.3906 23.7641 30.3273 23.8275C30.2639 23.8908 30.2136 23.9661 30.1793 24.0489C30.145 24.1317 30.1274 24.2204 30.1274 24.3101C30.1274 25.0576 31.4924 25.0576 31.4924 24.3101C31.4924 24.129 31.4205 23.9555 31.2925 23.8275C31.1645 23.6995 30.9909 23.6276 30.8099 23.6276Z" fill="url(#paint2_linear_50_142)"/>
<path d="M43.3876 26.8776C42.8798 26.8776 42.3834 26.727 41.9612 26.4449C41.5389 26.1627 41.2099 25.7617 41.0155 25.2926C40.8212 24.8234 40.7704 24.3072 40.8694 23.8092C40.9685 23.3111 41.213 22.8536 41.5721 22.4946C41.9312 22.1355 42.3887 21.891 42.8867 21.7919C43.3848 21.6928 43.901 21.7437 44.3701 21.938C44.8393 22.1323 45.2403 22.4614 45.5224 22.8836C45.8045 23.3059 45.9551 23.8023 45.9551 24.3101C45.9551 24.991 45.6846 25.6441 45.2031 26.1256C44.7216 26.6071 44.0685 26.8776 43.3876 26.8776ZM43.3876 23.6276C43.2066 23.6276 43.033 23.6995 42.905 23.8275C42.777 23.9555 42.7051 24.129 42.7051 24.3101C42.7051 25.0576 44.0701 25.0576 44.1026 24.3101C44.1027 24.2176 44.084 24.1261 44.0477 24.0411C44.0114 23.9561 43.9582 23.8794 43.8914 23.8156C43.8245 23.7518 43.7454 23.7022 43.6588 23.6699C43.5722 23.6376 43.4799 23.6232 43.3876 23.6276Z" fill="url(#paint3_linear_50_142)"/>
<path d="M47.9372 52.6176C47.5157 52.6075 47.1119 52.446 46.7997 52.1626C46.6474 52.0115 46.5265 51.8318 46.444 51.6338C46.3615 51.4358 46.3191 51.2234 46.3191 51.0089C46.3191 50.7943 46.3615 50.5819 46.444 50.3839C46.5265 50.1859 46.6474 50.0062 46.7997 49.8551L51.9997 44.5251L46.1497 38.6751C45.9943 38.5292 45.8704 38.353 45.7857 38.1574C45.701 37.9617 45.6573 37.7508 45.6573 37.5376C45.6573 37.3244 45.701 37.1135 45.7857 36.9178C45.8704 36.7222 45.9943 36.546 46.1497 36.4001C46.3008 36.2478 46.4805 36.1269 46.6785 36.0444C46.8766 35.9619 47.089 35.9194 47.3035 35.9194C47.518 35.9194 47.7304 35.9619 47.9284 36.0444C48.1264 36.1269 48.3062 36.2478 48.4572 36.4001L55.4447 43.3876C55.735 43.6952 55.8967 44.1022 55.8967 44.5251C55.8967 44.948 55.735 45.355 55.4447 45.6626L48.9447 52.1626C48.6667 52.4188 48.3133 52.5784 47.9372 52.6176Z" fill="url(#paint4_linear_50_142)"/>
<path d="M31.3624 52.6176C30.9409 52.6075 30.5371 52.446 30.2249 52.1626L23.7249 45.6626C23.5695 45.5167 23.4456 45.3405 23.3609 45.1449C23.2762 44.9492 23.2325 44.7383 23.2325 44.5251C23.2325 44.3119 23.2762 44.101 23.3609 43.9053C23.4456 43.7097 23.5695 43.5335 23.7249 43.3876L30.7449 36.4001C30.896 36.2478 31.0757 36.1269 31.2737 36.0444C31.4718 35.9619 31.6841 35.9194 31.8987 35.9194C32.1132 35.9194 32.3256 35.9619 32.5236 36.0444C32.7216 36.1269 32.9014 36.2478 33.0524 36.4001C33.3502 36.7039 33.5169 37.1123 33.5169 37.5376C33.5169 37.963 33.3502 38.3713 33.0524 38.6751L27.2024 44.5251L32.4999 49.8551C32.7997 50.1643 32.9674 50.5781 32.9674 51.0089C32.9674 51.4396 32.7997 51.8534 32.4999 52.1626C32.1877 52.446 31.7839 52.6075 31.3624 52.6176Z" fill="url(#paint5_linear_50_142)"/>
<rect x="0.5" y="0.5" width="77" height="77" stroke="black"/>
<defs>
<linearGradient id="paint0_linear_50_142" x1="38.9998" y1="11.7976" x2="38.9998" y2="66.2351" gradientUnits="userSpaceOnUse">
<stop stop-color="#00CB14"/>
<stop offset="1" stop-color="#A4FFAD"/>
</linearGradient>
<linearGradient id="paint1_linear_50_142" x1="18.2001" y1="21.7426" x2="18.2001" y2="26.8776" gradientUnits="userSpaceOnUse">
<stop stop-color="#00CB14"/>
<stop offset="1" stop-color="#A4FFAD"/>
</linearGradient>
<linearGradient id="paint2_linear_50_142" x1="30.8099" y1="21.7426" x2="30.8099" y2="26.8776" gradientUnits="userSpaceOnUse">
<stop stop-color="#00CB14"/>
<stop offset="1" stop-color="#A4FFAD"/>
</linearGradient>
<linearGradient id="paint3_linear_50_142" x1="43.3876" y1="21.7426" x2="43.3876" y2="26.8776" gradientUnits="userSpaceOnUse">
<stop stop-color="#00CB14"/>
<stop offset="1" stop-color="#A4FFAD"/>
</linearGradient>
<linearGradient id="paint4_linear_50_142" x1="50.777" y1="35.9194" x2="50.777" y2="52.6176" gradientUnits="userSpaceOnUse">
<stop stop-color="#00CB14"/>
<stop offset="1" stop-color="#A4FFAD"/>
</linearGradient>
<linearGradient id="paint5_linear_50_142" x1="28.3747" y1="35.9194" x2="28.3747" y2="52.6176" gradientUnits="userSpaceOnUse">
<stop stop-color="#00CB14"/>
<stop offset="1" stop-color="#A4FFAD"/>
</linearGradient>
</defs>
</svg>
