<svg width="69" height="69" viewBox="0 0 69 69" fill="none" xmlns="http://www.w3.org/2000/svg">
<path d="M34.0626 65.1355C32.9254 65.1302 31.8035 64.8697 30.7776 64.3727C29.7518 63.8756 28.8476 63.1544 28.13 62.261L25.6321 59.3866C25.2741 58.9635 24.8231 58.6312 24.3153 58.4166C23.8076 58.2019 23.2572 58.1108 22.7084 58.1505L18.8764 58.4955C17.7485 58.5918 16.6134 58.4386 15.5497 58.0465C14.4861 57.6544 13.5194 57.0327 12.7167 56.2246C11.9183 55.4109 11.3022 54.4326 10.9104 53.3563C10.5185 52.28 10.3601 51.1309 10.4459 49.987L10.7581 45.9915C10.7743 45.4485 10.6705 44.9086 10.4545 44.4113C10.2384 43.914 9.91545 43.4719 9.50917 43.117L6.67062 40.6162C5.80451 39.8769 5.10833 38.9549 4.63075 37.9148C4.15318 36.8746 3.90574 35.7413 3.90574 34.5942C3.90574 33.4471 4.15318 32.3139 4.63075 31.2737C5.10833 30.2335 5.80451 29.3115 6.67062 28.5722L9.50917 26.0427C9.9341 25.6684 10.2641 25.1964 10.4716 24.6662C10.679 24.136 10.7578 23.5632 10.7014 22.9957L10.3607 19.1152C10.2731 17.9736 10.4279 16.8263 10.8147 15.7504C11.2015 14.6745 11.8113 13.6949 12.6032 12.8776C13.4023 12.0627 14.3676 11.4347 15.4317 11.0374C16.4957 10.6402 17.6326 10.4834 18.7628 10.578L22.7084 10.8942C23.2458 10.9191 23.7815 10.8179 24.2739 10.5985C24.7663 10.3791 25.202 10.0474 25.5469 9.62944L28.0165 6.75497C28.7379 5.8661 29.643 5.1481 30.6679 4.65149C31.6929 4.15488 32.8128 3.89171 33.949 3.88049C35.0862 3.88576 36.2081 4.1463 37.2339 4.64334C38.2598 5.14038 39.164 5.86156 39.8816 6.75497L42.3795 9.62944C42.7549 10.0602 43.2261 10.3943 43.7542 10.6042C44.2823 10.8142 44.8522 10.8939 45.4167 10.8367L49.2488 10.4918C50.3944 10.3805 51.5501 10.5271 52.6332 10.9212C53.7163 11.3152 54.6999 11.9468 55.5137 12.7709C56.3275 13.595 56.9513 14.5911 57.3404 15.6879C57.7295 16.7847 57.8743 17.9551 57.7644 19.1152L57.367 22.9957C57.3508 23.5388 57.4546 24.0786 57.6706 24.5759C57.8867 25.0732 58.2097 25.5154 58.6159 25.8702L61.4545 28.371C62.3206 29.1103 63.0168 30.0323 63.4944 31.0725C63.9719 32.1126 64.2194 33.2459 64.2194 34.393C64.2194 35.5401 63.9719 36.6734 63.4944 37.7136C63.0168 38.7537 62.3206 39.6757 61.4545 40.415L58.6159 42.9446C58.191 43.3188 57.861 43.7909 57.6535 44.3211C57.4461 44.8512 57.3673 45.4241 57.4238 45.9915L57.7644 49.8721C57.852 51.0136 57.6972 52.1609 57.3104 53.2368C56.9236 54.3127 56.3138 55.2923 55.5219 56.1097C54.7229 56.9245 53.7575 57.5526 52.6934 57.9498C51.6294 58.3471 50.4925 58.5039 49.3623 58.4092L45.4167 58.093C44.8805 58.0767 44.3474 58.1817 43.8563 58.4005C43.3652 58.6193 42.9286 58.9464 42.5782 59.3578L40.1086 62.2323C39.3872 63.1212 38.4821 63.8391 37.4572 64.3358C36.4322 64.8324 35.3123 65.0955 34.1761 65.1068L34.0626 65.1355ZM22.9922 53.8388C24.1281 53.852 25.2474 54.116 26.272 54.6125C27.2967 55.109 28.202 55.8259 28.9248 56.7133L31.4227 59.5878C31.7539 59.985 32.1669 60.304 32.6327 60.5225C33.0986 60.741 33.606 60.8536 34.1193 60.8525C34.6599 60.8808 35.1994 60.7783 35.693 60.5533C36.1867 60.3284 36.6203 59.9875 36.9579 59.559L39.4274 56.6845C40.2168 55.7055 41.2272 54.9332 42.3734 54.4329C43.5196 53.9326 44.7679 53.7189 46.0128 53.8101L49.8448 54.0975C50.3646 54.1552 50.8904 54.0919 51.3823 53.9126C51.8742 53.7333 52.3192 53.4426 52.6834 53.0627C53.0518 52.6891 53.3344 52.2378 53.511 51.7409C53.6877 51.2441 53.754 50.714 53.7053 50.1882L53.393 46.3365C53.3006 45.0755 53.5105 43.8107 54.0047 42.6496C54.4989 41.4884 55.2629 40.4655 56.2316 39.6677L59.0701 37.1381C59.4623 36.8027 59.7774 36.3845 59.9931 35.9128C60.2089 35.4411 60.3201 34.9273 60.3191 34.4074C60.347 33.86 60.2457 33.3136 60.0236 32.8138C59.8015 32.3139 59.4649 31.8748 59.0417 31.5329L56.2032 29.0321C55.2382 28.2312 54.4768 27.2077 53.9829 26.0474C53.489 24.887 53.277 23.6237 53.3646 22.3634L53.6485 18.4828C53.6922 17.9633 53.6229 17.4405 53.4453 16.9511C53.2678 16.4617 52.9864 16.0177 52.621 15.6504C52.2556 15.2831 51.8151 15.0015 51.3305 14.8254C50.8459 14.6492 50.3291 14.5829 49.8165 14.631L46.0128 14.9472C44.7674 15.0432 43.5176 14.8318 42.3706 14.3312C41.2236 13.8305 40.2136 13.0555 39.4274 12.0727L36.9295 9.19827C36.5585 8.81953 36.1084 8.52993 35.6122 8.35084C35.116 8.17174 34.5864 8.1077 34.0626 8.16346C33.522 8.13515 32.9825 8.23772 32.4888 8.46267C31.9952 8.68762 31.5616 9.02847 31.224 9.45697L28.7545 12.3314C27.959 13.3032 26.9475 14.0703 25.8028 14.57C24.6582 15.0696 23.4129 15.2875 22.1691 15.2059L18.337 14.9185C17.8173 14.8608 17.2915 14.924 16.7996 15.1034C16.3076 15.2827 15.8626 15.5734 15.4985 15.9533C15.13 16.3269 14.8475 16.7782 14.6708 17.2751C14.4942 17.7719 14.4279 18.302 14.4766 18.8278L14.7889 22.6795C14.8812 23.9405 14.6714 25.2053 14.1772 26.3664C13.6829 27.5276 12.919 28.5505 11.9503 29.3483L9.11177 31.8779C8.71953 32.2132 8.40449 32.6315 8.18874 33.1032C7.97299 33.5749 7.86174 34.0887 7.86281 34.6086C7.83486 35.156 7.93615 35.7023 8.15828 36.2022C8.38042 36.7021 8.71701 37.1412 9.14016 37.4831L11.9787 39.9839C12.9437 40.7848 13.7051 41.8083 14.1989 42.9686C14.6928 44.1289 14.9048 45.3922 14.8172 46.6526L14.5334 50.5332C14.4897 51.0527 14.559 51.5755 14.7365 52.0649C14.9141 52.5543 15.1955 52.9983 15.5609 53.3656C15.9263 53.7329 16.3668 54.0145 16.8514 54.1906C17.3359 54.3668 17.8528 54.4331 18.3654 54.385L22.1691 54.0688L22.9922 53.8388Z" fill="url(#paint0_linear_159_79)"/>
<path d="M34.0625 45.273C31.2394 45.273 28.5319 44.1374 26.5357 42.1159C24.5395 40.0943 23.418 37.3526 23.418 34.4938C23.418 31.6349 24.5395 28.8932 26.5357 26.8717C28.5319 24.8501 31.2394 23.7145 34.0625 23.7145C36.8856 23.7145 39.5931 24.8501 41.5893 26.8717C43.5856 28.8932 44.707 31.6349 44.707 34.4938C44.707 37.3526 43.5856 40.0943 41.5893 42.1159C39.5931 44.1374 36.8856 45.273 34.0625 45.273ZM34.0625 28.0262C32.3686 28.0262 30.7442 28.7076 29.5464 29.9205C28.3487 31.1334 27.6758 32.7784 27.6758 34.4938C27.6758 36.2091 28.3487 37.8541 29.5464 39.067C30.7442 40.2799 32.3686 40.9613 34.0625 40.9613C35.7564 40.9613 37.3809 40.2799 38.5786 39.067C39.7763 37.8541 40.4492 36.2091 40.4492 34.4938C40.4492 32.7784 39.7763 31.1334 38.5786 29.9205C37.3809 28.7076 35.7564 28.0262 34.0625 28.0262Z" fill="url(#paint1_linear_159_79)"/>
<defs>
<linearGradient id="paint0_linear_159_79" x1="34.0626" y1="3.88049" x2="34.0626" y2="65.1355" gradientUnits="userSpaceOnUse">
<stop stop-color="#00CB14"/>
<stop offset="1" stop-color="#ECECEC"/>
</linearGradient>
<linearGradient id="paint1_linear_159_79" x1="34.0625" y1="23.7145" x2="34.0625" y2="45.273" gradientUnits="userSpaceOnUse">
<stop stop-color="#00CB14"/>
<stop offset="1" stop-color="#ECECEC"/>
</linearGradient>
</defs>
</svg>
